<svg width="113" height="113" viewBox="0 0 113 113" fill="none" xmlns="http://www.w3.org/2000/svg">
<path d="M82.2925 98.4133C81.543 98.4163 80.8038 98.2395 80.1368 97.8978L56.2363 85.3852L32.3359 97.8978C31.5598 98.3059 30.6848 98.4881 29.8103 98.4236C28.9359 98.3592 28.097 98.0507 27.3891 97.5332C26.6813 97.0157 26.1328 96.31 25.806 95.4963C25.4793 94.6826 25.3873 93.7936 25.5407 92.9303L30.2271 66.5461L10.9193 47.8007C10.3169 47.1995 9.88954 46.4457 9.68314 45.6201C9.47673 44.7944 9.49904 43.9282 9.74768 43.1143C10.0193 42.2814 10.5189 41.5413 11.1899 40.9781C11.8609 40.4148 12.6763 40.0509 13.5436 39.9276L40.2559 36.0379L52.0186 11.9969C52.4024 11.2046 53.0015 10.5364 53.7475 10.0688C54.4934 9.60125 55.356 9.35327 56.2363 9.35327C57.1167 9.35327 57.9793 9.60125 58.7252 10.0688C59.4712 10.5364 60.0703 11.2046 60.4541 11.9969L72.3574 35.991L99.0696 39.8807C99.937 40.004 100.752 40.3679 101.423 40.9312C102.094 41.4945 102.594 42.2345 102.866 43.0674C103.114 43.8813 103.137 44.7476 102.93 45.5732C102.724 46.3988 102.296 47.1526 101.694 47.7538L82.3862 66.4992L87.0726 92.8834C87.2399 93.762 87.1523 94.6701 86.8201 95.5005C86.4879 96.3309 85.9251 97.0489 85.198 97.5698C84.3494 98.1644 83.3276 98.4611 82.2925 98.4133V98.4133ZM56.2363 75.4502C56.9876 75.4312 57.7307 75.6089 58.3921 75.9656L76.0596 85.3384L72.6854 65.6088C72.5545 64.8555 72.6099 64.0815 72.8468 63.3545C73.0837 62.6275 73.4949 61.9695 74.0445 61.4379L88.1036 47.7069L68.4209 44.8014C67.6991 44.6561 67.0217 44.3427 66.4436 43.8868C65.8655 43.4308 65.403 42.8451 65.0935 42.177L56.2363 24.6032L47.3791 42.177C47.0401 42.8505 46.5435 43.4322 45.9316 43.8727C45.3197 44.3133 44.6106 44.5997 43.8644 44.7077L24.1817 47.6132L38.2407 61.3442C38.7903 61.8758 39.2015 62.5338 39.4384 63.2608C39.6753 63.9878 39.7307 64.7617 39.5998 65.5151L36.2256 85.0103L53.8932 75.6376C54.6418 75.3593 55.453 75.2944 56.2363 75.4502V75.4502Z" fill="#231F20"/>
</svg>
